<?xml version="1.0" encoding="UTF-8"?>
<svg width="213px" height="213px" viewBox="0 0 213 213" version="1.1" xmlns="http://www.w3.org/2000/svg" xmlns:xlink="http://www.w3.org/1999/xlink">
    <!-- Generator: sketchtool 48.2 (47327) - http://www.bohemiancoding.com/sketch -->
    <title>56DD95C1-A171-4164-A5EC-9DADC65EFA8E</title>
    <desc>Created with sketchtool.</desc>
    <defs>
        <linearGradient x1="0%" y1="-11.8167293%" x2="100%" y2="100%" id="linearGradient-1">
            <stop stop-color="#36D7F7" offset="0%"></stop>
            <stop stop-color="#19AEEC" offset="100%"></stop>
        </linearGradient>
    </defs>
    <g id="HOME" stroke="none" stroke-width="1" fill="none" fill-rule="evenodd" transform="translate(-100.000000, -60.000000)">
        <g id="img_marca_azul" transform="translate(100.000000, 60.000000)">
            <path d="M212.3799,106.849 C212.3799,165.44 164.8819,212.938 106.2909,212.938 C47.6999,212.938 0.2029,165.44 0.2029,106.849 C0.2029,48.258 47.6999,0.76 106.2909,0.76 C164.8819,0.76 212.3799,48.258 212.3799,106.849" id="Fill-1475" fill="url(#linearGradient-1)"></path>
            <path d="M132.2014,83.6756 L130.5754,72.9336 C130.2824,71.0916 128.6724,69.8666 126.9664,70.1506 C125.2684,70.4596 124.0974,72.1886 124.3954,74.0276 L126.0404,84.7746 C127.5404,94.7166 122.5024,96.3196 121.5264,96.5356 L117.0064,97.3316 C109.8354,98.5876 108.3714,92.0766 108.1624,90.7756 L104.0494,63.7736 C103.7654,61.9316 102.1674,60.6936 100.4504,60.9866 C98.7494,61.2966 97.5844,63.0346 97.8824,64.8786 L100.3024,80.7616 C99.3664,80.2286 98.7254,80.6456 97.6894,81.5186 C96.3314,82.6536 96.1474,84.8686 97.1814,86.3356 C97.2094,86.3826 97.2374,86.4236 97.2614,86.4736 C97.6274,86.9576 98.8194,88.6126 102.4084,93.6316 C103.9404,99.1956 108.8714,105.5936 118.0264,103.9796 L123.3774,103.0336 C123.7694,102.9556 124.1394,102.8146 124.4414,102.5976 C128.6854,100.8596 133.9974,95.4706 132.2014,83.6756" id="Fill-1477" fill="#FFFFFF"></path>
            <path d="M120.6417,83.0761 C122.3507,82.7881 123.5137,81.0481 123.2177,79.2141 L122.1657,72.3781 C121.8907,70.5511 120.2817,69.3191 118.5827,69.6041 C116.8607,69.9111 115.7067,71.6311 115.9807,73.4791 L117.0337,80.3101 C117.3177,82.1511 118.9307,83.3841 120.6417,83.0761" id="Fill-1479" fill="#FFFFFF"></path>
            <path d="M113.1371,84.4074 C114.8351,84.0984 115.9911,82.3934 115.7141,80.5454 L114.6631,73.7244 C114.3871,71.8764 112.7771,70.6224 111.0591,70.9294 C109.3611,71.2294 108.1901,72.9644 108.4881,74.8004 L109.5331,81.6344 C109.8091,83.4654 111.4121,84.7144 113.1371,84.4074" id="Fill-1481" fill="#FFFFFF"></path>
            <path d="M92.7432,139.8389 C91.6952,140.0579 89.2502,140.2559 87.5612,140.2559 C83.4542,140.2559 79.7842,139.2009 79.7842,133.4079 L79.7842,116.9429 C79.7842,116.5919 80.0762,116.2999 80.4292,116.2999 L84.5992,116.2999 C84.9522,116.2999 85.2302,116.5919 85.2302,116.9429 L85.2302,133.4079 C85.2302,135.0589 85.7702,135.5729 87.2732,135.5729 L92.7432,135.5729 C93.0962,135.5729 93.3842,135.8609 93.3842,136.2069 L93.3842,139.1699 C93.3842,139.5859 93.1972,139.7419 92.7432,139.8389" id="Fill-1483" fill="#FFFFFF"></path>
            <path d="M110.7795,132.4507 L100.6195,132.4507 L100.6195,132.5127 C100.6195,134.3307 101.3905,135.9857 103.9115,135.9857 C105.9125,135.9857 108.7365,135.8227 110.0235,135.6977 L110.1095,135.6977 C110.4635,135.6977 110.7175,135.8597 110.7175,136.2067 L110.7175,138.6287 C110.7175,139.1387 110.5885,139.3647 110.0475,139.4917 C108.0045,139.9957 106.2915,140.2547 103.5205,140.2547 C99.6625,140.2547 95.5285,138.2127 95.5285,132.0727 L95.5285,129.8427 C95.5285,124.7117 98.5145,121.4637 103.5825,121.4637 C108.7985,121.4637 111.4485,125.0277 111.4485,129.8427 L111.4485,131.6877 C111.4485,132.1627 111.1965,132.4507 110.7795,132.4507 Z M106.4195,129.1347 C106.4195,126.7867 105.3335,125.6067 103.5575,125.6067 C101.8065,125.6067 100.6195,126.8187 100.6195,129.1347 L100.6195,129.2637 L106.4195,129.2637 L106.4195,129.1347 Z" id="Fill-1485" fill="#FFFFFF"></path>
            <path d="M128.2366,139.964 L124.6676,139.964 C124.3286,139.964 124.0406,139.68 124.0406,139.326 L124.0406,138.816 C122.7906,139.711 121.5186,140.255 119.6136,140.255 C116.8436,140.255 114.1716,138.916 114.1716,134.779 L114.1716,134.494 C114.1716,130.762 116.5516,129.11 121.9966,129.11 L123.7246,129.11 L123.7246,127.959 C123.7246,126.141 122.8286,125.763 121.3306,125.763 C119.2986,125.763 117.0306,125.892 116.0486,125.992 L115.8856,125.992 C115.5696,125.992 115.3166,125.825 115.3166,125.413 L115.3166,122.834 C115.3166,122.487 115.5316,122.227 115.9246,122.133 C117.0956,121.842 119.3256,121.464 121.4316,121.464 C126.0166,121.464 128.8786,123.306 128.8786,127.959 L128.8786,139.326 C128.8786,139.68 128.5906,139.964 128.2366,139.964 Z M123.8116,132.163 L121.9966,132.163 C119.7806,132.163 119.1986,132.929 119.1986,134.494 L119.1986,134.779 C119.1986,136.114 119.8676,136.371 121.2026,136.371 C122.1596,136.371 123.0546,136.051 123.8116,135.666 L123.8116,132.163 Z" id="Fill-1487" fill="#FFFFFF"></path>
            <path d="M142.2293,125.7315 L141.9763,125.7315 C140.4253,125.7315 139.0523,126.2065 137.8663,126.8425 L137.8663,139.3015 C137.8663,139.6485 137.5883,139.9635 137.2383,139.9635 L133.3803,139.9635 C133.0273,139.9635 132.7113,139.6485 132.7113,139.3015 L132.7113,122.3515 C132.7113,122.0015 133.0023,121.7155 133.3433,121.7155 L137.1343,121.7155 C137.4873,121.7155 137.7793,122.0015 137.7793,122.3515 L137.7793,122.9975 C138.9523,122.0015 140.5503,121.4625 142.0773,121.4625 C142.4163,121.4625 142.7083,121.7475 142.7083,122.0955 L142.7083,125.1275 C142.7083,125.4135 142.5173,125.7315 142.2293,125.7315" id="Fill-1489" fill="#FFFFFF"></path>
            <path d="M160.3282,139.9637 L156.4712,139.9637 C156.1172,139.9637 155.8392,139.6487 155.8392,139.3007 L155.8392,128.6947 C155.8392,126.4637 155.4242,125.7317 153.4842,125.7317 C152.5522,125.7317 151.5662,126.1727 150.4842,126.7477 L150.4842,139.3007 C150.4842,139.6487 150.2072,139.9637 149.8522,139.9637 L145.9962,139.9637 C145.6412,139.9637 145.3262,139.6487 145.3262,139.3007 L145.3262,122.3517 C145.3262,122.0007 145.6182,121.7167 145.9712,121.7167 L149.5272,121.7167 C149.8772,121.7167 150.1692,122.0007 150.1692,122.3517 L150.1692,123.1217 C151.9212,121.8737 153.3182,121.4637 155.3612,121.4637 C159.9742,121.4637 160.9942,124.6797 160.9942,128.6947 L160.9942,139.3007 C160.9942,139.6487 160.6812,139.9637 160.3282,139.9637" id="Fill-1491" fill="#FFFFFF"></path>
            <path d="M88.8077,46.1653 L107.2117,46.1683 C112.0937,46.1703 116.0407,50.1243 116.0397,54.9913 L116.0397,68.9363 C115.5837,69.3383 115.1617,69.7933 114.8417,70.3283 C113.9757,69.5233 112.8307,69.0333 111.5737,69.0373 C111.4707,69.0423 110.8607,69.0953 110.7447,69.1113 C110.6947,69.1203 110.6647,69.1663 110.6147,69.1703 L110.6077,54.9993 C110.6147,53.1273 109.0987,51.5933 107.2127,51.5953 L88.7977,51.5953 C86.9407,51.5963 85.4127,53.1193 85.4117,54.9913 L85.4047,92.5653 C85.3977,94.4373 86.9357,95.9593 88.8007,95.9583 L101.2737,95.9543 C102.0167,97.8553 103.1517,99.7463 104.6657,101.3963 L88.7937,101.3953 C83.9407,101.3893 79.9637,97.4323 79.9677,92.5583 L79.9747,54.9913 C79.9747,50.1283 83.9337,46.1713 88.8077,46.1653" id="Fill-1493" fill="#FFFFFF"></path>
            <path d="M97.633,90.138 C98.164,90.868 98.821,91.81 99.657,92.951 C99.302,93.573 98.768,94.058 98.009,94.053 C96.878,94.055 95.981,93.144 95.98,92.006 C95.972,91.038 96.713,90.331 97.633,90.138" id="Fill-1495" fill="#FFFFFF"></path>
            <path d="M74.9702,139.9637 L71.1122,139.9637 C70.7592,139.9637 70.4712,139.6487 70.4712,139.3007 L70.4712,128.4377 C70.4712,126.3947 69.9922,125.7937 68.5282,125.7937 C67.9872,125.7937 67.0302,125.9227 66.0842,126.3697 C66.1462,127.0057 66.1732,127.7367 66.1732,128.4377 L66.1732,139.3007 C66.1732,139.6487 65.8972,139.9637 65.5422,139.9637 L61.6852,139.9637 C61.3312,139.9637 61.0152,139.6487 61.0152,139.3007 L61.0152,128.4377 C61.0152,126.3947 60.6382,125.7937 59.1632,125.7937 C58.5712,125.7937 57.7382,126.1107 56.7562,126.6197 L56.7562,139.3007 C56.7562,139.6487 56.4652,139.9637 56.1142,139.9637 L52.2582,139.9637 C51.9032,139.9637 51.5882,139.6487 51.5882,139.3007 L51.5882,122.3517 C51.5882,122.0007 51.8792,121.7167 52.2292,121.7167 L55.8612,121.7167 C56.2012,121.7167 56.4922,122.0007 56.4922,122.3517 L56.4922,123.0597 C57.8282,122.1647 59.3542,121.4637 61.2072,121.4637 C62.8962,121.4637 64.0682,121.9357 64.9632,123.0217 C66.8142,121.9697 68.0882,121.4637 70.1552,121.4637 C74.3522,121.4637 75.6252,124.2637 75.6252,128.4377 L75.6252,139.3007 C75.6252,139.6487 75.3102,139.9637 74.9702,139.9637" id="Fill-1497" fill="#FFFFFF"></path>
            <path d="M66.5796,151.6141 C66.2206,151.5801 65.4306,151.5651 64.9836,151.5651 C63.7816,151.5651 63.2226,152.0541 63.2226,153.1051 L63.2226,156.2531 C63.2226,157.3041 63.7816,157.7931 64.9836,157.7931 C65.1846,157.7931 66.2086,157.7921 66.5806,157.7521 C66.6416,157.7431 66.6786,157.6751 66.6786,157.6181 L66.6786,157.2011 C66.6786,157.1291 66.6346,157.0821 66.5696,157.0821 L64.9916,157.0821 C64.1486,157.0821 64.0066,156.8751 64.0066,156.2531 L64.0066,154.9001 L66.4946,154.9001 C66.5966,154.9001 66.6786,154.8181 66.6786,154.7161 L66.6786,154.4061 C66.6786,154.3041 66.5966,154.2221 66.4946,154.2221 L64.0066,154.2221 L64.0066,153.1051 C64.0066,152.4831 64.1486,152.2771 64.9916,152.2771 L66.5696,152.2771 C66.6346,152.2771 66.6786,152.2281 66.6786,152.1581 L66.6786,151.7491 C66.6786,151.6921 66.6416,151.6241 66.5796,151.6141" id="Fill-1499" fill="#FFFFFF"></path>
            <path d="M70.8772,151.5647 C70.2442,151.5647 69.6222,151.6077 69.3862,151.6467 C69.2682,151.6667 69.1972,151.7497 69.1972,151.8717 L69.1972,157.4867 C69.1972,157.6137 69.2642,157.6927 69.3862,157.7107 C69.6202,157.7517 70.2432,157.7927 70.8772,157.7927 C72.4872,157.7927 73.3742,156.8847 73.3742,155.2317 L73.3742,154.1277 C73.3742,152.4507 72.5102,151.5647 70.8772,151.5647 Z M69.9902,152.2667 C70.2652,152.2497 70.5162,152.2427 70.8772,152.2427 C72.0302,152.2427 72.5902,152.8597 72.5902,154.1277 L72.5902,155.2317 C72.5902,156.4997 72.0302,157.1157 70.8772,157.1157 C70.4982,157.1157 70.2452,157.1157 69.9902,157.0997 L69.9902,152.2667 Z" id="Fill-1501" fill="#FFFFFF"></path>
            <path d="M79.9329,151.622 L79.4929,151.622 C79.3939,151.622 79.3169,151.701 79.3169,151.798 L79.3169,155.509 C79.3169,156.65 78.9339,157.116 77.9959,157.116 C77.0709,157.116 76.6759,156.636 76.6759,155.509 L76.6759,151.798 C76.6759,151.701 76.5979,151.622 76.5009,151.622 L76.0599,151.622 C75.9619,151.622 75.8829,151.701 75.8829,151.798 L75.8829,155.509 C75.8829,157.025 76.5949,157.794 77.9959,157.794 C79.3979,157.794 80.1089,157.025 80.1089,155.509 L80.1089,151.798 C80.1089,151.701 80.0299,151.622 79.9329,151.622" id="Fill-1503" fill="#FFFFFF"></path>
            <path d="M86.2115,157.0168 L86.1765,157.0168 C86.0475,157.0278 85.3785,157.0818 84.8295,157.0818 C83.9125,157.0818 83.4275,156.4478 83.4275,155.2478 L83.4275,154.1118 C83.4275,152.8938 83.8995,152.2768 84.8295,152.2768 C85.3315,152.2768 85.9865,152.3318 86.2035,152.3508 L86.2275,152.3508 C86.3075,152.3508 86.3455,152.3148 86.3455,152.2388 L86.3455,151.8228 C86.3455,151.7138 86.2335,151.7008 86.1975,151.6968 C85.9075,151.6508 85.3685,151.5648 84.8215,151.5648 C84.1665,151.5648 82.6435,151.8138 82.6435,154.1118 L82.6435,155.2478 C82.6435,157.5448 84.1665,157.7938 84.8215,157.7938 C85.4915,157.7938 85.8165,157.7568 86.1825,157.6878 C86.2985,157.6658 86.3625,157.6008 86.3625,157.5038 L86.3625,157.1678 C86.3625,157.0678 86.3115,157.0168 86.2115,157.0168" id="Fill-1505" fill="#FFFFFF"></path>
            <path d="M91.5361,152.1934 C91.3821,151.6474 90.9411,151.5654 90.6911,151.5654 C90.4391,151.5654 89.9921,151.6484 89.8381,152.2024 L88.3261,157.5184 C88.3161,157.5404 88.3161,157.5664 88.3161,157.5854 C88.3161,157.6714 88.3851,157.7364 88.4751,157.7364 L88.9591,157.7364 C89.0311,157.7364 89.1051,157.6744 89.1251,157.5984 L89.6441,155.7334 L91.7301,155.7334 L92.2561,157.5974 C92.2781,157.6824 92.3401,157.7364 92.4161,157.7364 L92.8981,157.7364 C92.9921,157.7364 93.0571,157.6754 93.0571,157.5854 C93.0571,157.5664 93.0571,157.5404 93.0481,157.5224 L91.5361,152.1934 Z M89.8101,155.0474 L90.5471,152.3844 C90.5721,152.2934 90.6171,152.2514 90.6911,152.2514 C90.7581,152.2514 90.8021,152.2954 90.8261,152.3844 L91.5631,155.0474 L89.8101,155.0474 Z" id="Fill-1507" fill="#FFFFFF"></path>
            <path d="M98.783,157.0168 L98.748,157.0168 C98.619,157.0278 97.95,157.0818 97.401,157.0818 C96.484,157.0818 96,156.4478 96,155.2478 L96,154.1118 C96,152.8938 96.471,152.2768 97.401,152.2768 C97.903,152.2768 98.558,152.3318 98.775,152.3508 L98.8,152.3508 C98.879,152.3508 98.918,152.3148 98.918,152.2388 L98.918,151.8228 C98.918,151.7138 98.805,151.7008 98.77,151.6968 C98.48,151.6508 97.941,151.5648 97.394,151.5648 C96.739,151.5648 95.215,151.8138 95.215,154.1118 L95.215,155.2478 C95.215,157.5448 96.739,157.7938 97.394,157.7938 C98.064,157.7938 98.389,157.7568 98.753,157.6878 C98.87,157.6658 98.934,157.6008 98.934,157.5038 L98.934,157.1678 C98.934,157.0668 98.885,157.0168 98.783,157.0168" id="Fill-1509" fill="#FFFFFF"></path>
            <path d="M97.7697,157.9572 L97.2297,157.9572 C97.1327,157.9572 97.0857,157.9952 97.0107,158.0872 L96.2157,159.1022 C96.2027,159.1222 96.1797,159.1602 96.1797,159.1952 C96.1797,159.2342 96.2097,159.2722 96.2737,159.2722 L96.7147,159.2722 C96.8047,159.2722 96.8367,159.2362 96.8957,159.1682 L97.8407,158.1142 C97.8697,158.0872 97.8797,158.0552 97.8797,158.0352 C97.8797,157.9832 97.8427,157.9572 97.7697,157.9572" id="Fill-1511" fill="#FFFFFF"></path>
            <path d="M103.6053,152.1872 L102.7473,152.1872 C102.7383,152.1872 102.7303,152.1932 102.7283,152.2022 L100.8653,157.7102 C100.8633,157.7162 100.8643,157.7222 100.8673,157.7282 C100.8723,157.7342 100.8773,157.7362 100.8843,157.7362 L101.6193,157.7362 C101.6273,157.7362 101.6353,157.7302 101.6383,157.7222 L102.1983,156.0032 L104.1223,156.0032 L104.7063,157.7222 C104.7083,157.7302 104.7163,157.7362 104.7253,157.7362 L105.4863,157.7362 C105.4913,157.7362 105.4983,157.7342 105.5023,157.7282 C105.5053,157.7222 105.5063,157.7162 105.5043,157.7102 L103.6243,152.2022 C103.6223,152.1932 103.6143,152.1872 103.6053,152.1872 Z M102.3593,155.4072 L102.8893,153.8402 C102.9843,153.5392 103.0723,153.2142 103.1523,152.8712 L103.1613,152.9072 C103.2373,153.2042 103.3163,153.5112 103.4223,153.8482 L103.9613,155.4072 L102.3593,155.4072 Z" id="Fill-1513" fill="#FFFFFF"></path>
            <path d="M102.1671,151.892 L102.5351,151.892 C102.5451,151.892 102.5541,151.884 102.5551,151.874 C102.5811,151.638 102.6411,151.533 102.7471,151.533 C102.8541,151.533 102.9531,151.586 103.0771,151.653 L103.1391,151.685 C103.2971,151.768 103.4541,151.842 103.6471,151.842 C103.8051,151.842 103.9341,151.794 104.0281,151.699 C104.1561,151.567 104.2191,151.347 104.2151,151.046 C104.2151,151.035 104.2061,151.026 104.1951,151.026 L103.8271,151.026 C103.8161,151.026 103.8071,151.034 103.8061,151.045 C103.7901,151.311 103.7181,151.361 103.5891,151.361 C103.4881,151.361 103.3731,151.316 103.2151,151.217 C103.0481,151.121 102.8931,151.043 102.6991,151.043 C102.5651,151.043 102.4461,151.094 102.3521,151.19 C102.2101,151.337 102.1361,151.579 102.1471,151.873 C102.1471,151.883 102.1561,151.892 102.1671,151.892" id="Fill-1515" fill="#FFFFFF"></path>
            <path d="M109.8508,151.5651 C108.4088,151.5651 107.6158,152.4841 107.6158,154.1531 L107.6158,155.2061 C107.6158,156.8741 108.4088,157.7931 109.8508,157.7931 C111.2868,157.7931 112.0768,156.8741 112.0768,155.2061 L112.0768,154.1531 C112.0768,152.4841 111.2868,151.5651 109.8508,151.5651 M108.4078,155.2061 L108.4078,154.1531 C108.4078,152.8901 108.8798,152.2761 109.8508,152.2761 C110.8158,152.2761 111.2848,152.8901 111.2848,154.1531 L111.2848,155.2061 C111.2848,156.4681 110.8158,157.0821 109.8508,157.0821 C108.8798,157.0821 108.4078,156.4681 108.4078,155.2061" id="Fill-1517" fill="#FFFFFF"></path>
            <path d="M122.8637,151.622 L122.3327,151.622 C122.1757,151.622 122.1047,151.66 122.0517,151.773 L120.7037,154.578 C120.6707,154.65 120.6507,154.656 120.6247,154.656 C120.5967,154.656 120.5777,154.65 120.5447,154.576 L119.1957,151.774 C119.1437,151.66 119.0727,151.622 118.9157,151.622 L118.3847,151.622 C118.2427,151.622 118.1277,151.737 118.1277,151.879 L118.1277,157.552 C118.1277,157.654 118.2097,157.736 118.3117,157.736 L118.7117,157.736 C118.8127,157.736 118.8957,157.654 118.8957,157.552 L118.8967,152.737 L120.0507,155.126 C120.1317,155.287 120.2167,155.375 120.4357,155.375 L120.8127,155.375 C121.0327,155.375 121.1187,155.287 121.1987,155.125 L122.3537,152.736 L122.3537,157.552 C122.3537,157.654 122.4357,157.736 122.5377,157.736 L122.9367,157.736 C123.0387,157.736 123.1207,157.654 123.1207,157.552 L123.1207,151.879 C123.1207,151.737 123.0057,151.622 122.8637,151.622" id="Fill-1519" fill="#FFFFFF"></path>
            <path d="M128.3701,151.7053 C128.3751,151.7053 128.3801,151.7033 128.3841,151.6993 L129.4791,150.6983 C129.4851,150.6923 129.4881,150.6833 129.4841,150.6753 C129.4811,150.6673 129.4741,150.6633 129.4651,150.6633 L128.5501,150.6703 L127.7511,151.6723 C127.7471,151.6783 127.7461,151.6873 127.7491,151.6943 C127.7521,151.7003 127.7591,151.7053 127.7671,151.7053 L128.3701,151.7053 Z" id="Fill-1521" fill="#FFFFFF"></path>
            <path d="M128.1575,151.8776 C127.0665,151.8776 126.1665,152.4876 125.7465,153.5086 C125.5745,153.9256 125.4875,154.3956 125.4875,154.9036 C125.4875,156.6536 126.5295,157.8296 128.0805,157.8296 L128.0895,157.8296 C129.4195,157.8296 130.7595,156.8906 130.7595,154.7936 C130.7595,153.0496 129.7145,151.8776 128.1575,151.8776 M128.1065,157.1856 C126.9215,157.1856 126.3005,156.0296 126.3005,154.8876 C126.3005,153.7096 126.8635,152.5226 128.1235,152.5226 C129.3645,152.5226 129.9285,153.7176 129.9285,154.8276 C129.9285,156.0016 129.3685,157.1856 128.1065,157.1856" id="Fill-1523" fill="#FFFFFF"></path>
            <path d="M137.4218,151.622 L136.9398,151.622 C136.8688,151.622 136.8008,151.682 136.7818,151.76 L135.3518,156.967 C135.3188,157.081 135.2828,157.123 135.2158,157.123 C135.1428,157.123 135.1048,157.083 135.0718,156.967 L133.6498,151.76 C133.6308,151.684 133.5568,151.622 133.4828,151.622 L133.0088,151.622 C132.9138,151.622 132.8408,151.691 132.8408,151.782 C132.8408,151.799 132.8408,151.82 132.8508,151.837 L134.3628,157.157 C134.5128,157.683 134.9088,157.794 135.2158,157.794 C135.6618,157.794 135.9488,157.58 136.0678,157.157 L137.5708,151.841 C137.5818,151.82 137.5818,151.799 137.5818,151.782 C137.5818,151.687 137.5168,151.622 137.4218,151.622" id="Fill-1525" fill="#FFFFFF"></path>
            <path d="M143.2852,151.6141 C142.9262,151.5801 142.1362,151.5651 141.6892,151.5651 C140.4872,151.5651 139.9272,152.0541 139.9272,153.1051 L139.9272,156.2531 C139.9272,157.3041 140.4872,157.7931 141.6892,157.7931 C141.8912,157.7931 142.9132,157.7921 143.2862,157.7521 C143.3472,157.7431 143.3842,157.6751 143.3842,157.6181 L143.3842,157.2011 C143.3842,157.1291 143.3402,157.0821 143.2752,157.0821 L141.6962,157.0821 C140.8542,157.0821 140.7122,156.8751 140.7122,156.2531 L140.7122,154.9001 L143.2012,154.9001 C143.3022,154.9001 143.3842,154.8181 143.3842,154.7161 L143.3842,154.4061 C143.3842,154.3041 143.3022,154.2221 143.2012,154.2221 L140.7122,154.2221 L140.7122,153.1051 C140.7122,152.4831 140.8542,152.2771 141.6962,152.2771 L143.2752,152.2771 C143.3412,152.2771 143.3842,152.2291 143.3842,152.1581 L143.3842,151.7491 C143.3842,151.6921 143.3472,151.6241 143.2852,151.6141" id="Fill-1527" fill="#FFFFFF"></path>
            <path d="M149.2503,157.0818 L147.6733,157.0818 C146.8303,157.0818 146.6873,156.8748 146.6873,156.2518 L146.6873,151.8058 C146.6873,151.7048 146.6053,151.6218 146.5033,151.6218 L146.0863,151.6218 C145.9853,151.6218 145.9043,151.7048 145.9043,151.8058 L145.9043,156.2518 C145.9043,157.6068 146.7493,157.7928 147.6643,157.7928 C148.3883,157.7928 149.0263,157.7548 149.2613,157.7188 C149.3223,157.7088 149.3593,157.6418 149.3593,157.5838 L149.3593,157.2018 C149.3593,157.1288 149.3153,157.0818 149.2503,157.0818" id="Fill-1529" fill="#FFFFFF"></path>
        </g>
    </g>
</svg>